# xmcd
#
# Track frame offsets:
#	150
#	11660
#	22727
#	35315
#	51542
#	65652
#	82430
#	99282
#	115022
#	132197
#	149357
#	162107
#
# Disc length: 2338
#
# Revision: 1
# Processed by: cddbd v1.5.1PL0 Copyright (c) Steve Scherf et al.
# Submitted via: EasyCDDAExtractor 4.6.0.1
# Normalized: r0:TDELIM( - )
#
DISCID=9d09200c
DTITLE=Various Artist - Country's Greatest Hits Disc 2
DYEAR=1900
DGENRE=
TTITLE0=Willie Nelson - On The Road Again
TTITLE1=George Jones - She's My Rock
TTITLE2=Barbara Mandrell - One of A Kind Pair of Fools
TTITLE3=Mickey Gilly - Stand By Me
TTITLE4=Ricky Van Shelton - I'll Leave This World Loving You
TTITLE5=Ricky Skaggs - Cajun Moon
TTITLE6=Shenandoah - Two Dozen Roses
TTITLE7=Roseanne Cash - Never Be You
TTITLE8=Crystal Gayle - Too Many Lovers
TTITLE9=Eddy Raven - Joe Knows How To Live
TTITLE10=Exile - Give Me One More Chance
TTITLE11=Janie Fricke - He's A Heartache
EXTD=
EXTT0=
EXTT1=
EXTT2=
EXTT3=
EXTT4=
EXTT5=
EXTT6=
EXTT7=
EXTT8=
EXTT9=
EXTT10=
EXTT11=
PLAYORDER=
